<?xml version="1.0" encoding="UTF-8"?>
<svg id="Layer_1" xmlns="http://www.w3.org/2000/svg" version="1.1" viewBox="0 0 192.98 169.79">
  <!-- Generator: Adobe Illustrator 29.7.1, SVG Export Plug-In . SVG Version: 2.1.1 Build 8)  -->
  <defs>
    <style>
      .st0 {
        fill: currentColor;
      }
    </style>
  </defs>
  <path class="st0" d="M44.83,56.18c4.19,33.52,8.22,67.05,11.96,100.62.24,2.12,7.82-3.27,7.5-6.14-3.74-33.57-7.77-67.1-11.96-100.62-.27-2.15-7.85,3.28-7.5,6.14h0Z"/>
  <path class="st0" d="M18.13,64.96c26.1-14.66,56.21-19.55,85.61-22.16,4.97-.44,12.38-.16,14.75,5.32s-7.19,10.49-11.01,12.51c-12.41,6.55-25.73,11.64-37.65,19.09-1.11.7-5.83,4.69-4.22,6.42,3.44,3.69,12,1.63,16.5,1.73,9.89.23,19.79.98,29.53,2.81,8.82,1.65,18.19,4.2,25.37,9.84,2.85,2.24,5.51,5.67,5.64,9.48.16,4.59-3.41,8.85-6.29,12.06-5.85,6.53-13.7,11.14-21.07,15.71-8.15,5.05-16.68,9.41-25.56,13.03s-18.87,6.8-28.6,9.01c-5.31,1.21-10.78,2.24-16.24,2.45-3.52.14-6.09-.17-7.33-3.86-.84-2.5-8.35,3.61-7.5,6.14,2.1,6.24,7.52,5.43,13.13,4.87,9.41-.95,18.64-3.38,27.65-6.19,16.22-5.06,31.4-12.32,45.77-21.37,12.02-7.57,26.46-17.24,32.08-30.97,6.38-15.57-12.49-23.24-24.4-26.29-9.87-2.52-20.15-3.56-30.3-4.03-4.05-.19-8.11-.34-12.17-.15-2.75.13-7.05.87-9.13-1.36l-4.22,6.42c14.04-8.78,30.77-13.08,44.23-22.86,4.77-3.46,10.37-8.66,12.8-14.12,2.76-6.2-.85-10.57-6.8-12.62-3.55-1.23-7-.78-10.66-.43-4.3.41-8.62.66-12.93.99-8.35.64-16.7,2.41-24.86,4.25-16.95,3.84-33.7,8.92-48.91,17.46-1.89,1.06-4.29,2.84-5,5-.5,1.52-.12,2.88,1.8,1.8h0Z"/>
  <path class="st0" d="M38.9,41.56c1.5-6.37,2.99-12.74,4.38-19.13.63-2.88,1.27-5.75,1.83-8.64.35-1.77.32-4.66,1.23-6.23l-6.42,4.22c5.46,7.02,9.61,14.8,13.41,22.81,1.86,3.92,3.69,7.85,5.53,11.78,1.66,3.55,4.72,8.27,4.96,12.32l.86-2.39-.48.76,4.48-4.09c-.65.03-1.25-.17-1.8-.59-2.53-1.55-8.81,6-7.07,7.07,3.9,2.39,7.87-.36,10.16-3.76,2.96-4.41-.9-9.63-2.85-13.85-5.88-12.76-11.45-25.99-20.13-37.14-1.39-1.79-5.89,3.31-6.42,4.22-2.64,4.6-2.96,10.33-4.06,15.45-1.58,7.36-3.28,14.68-5.01,22-.52,2.19,2.13.98,3.01.47,1.77-1.02,3.89-3.23,4.38-5.29h0Z"/>
  <path class="st0" d="M85.75,29.7c2.02-4.45,3.99-8.92,5.95-13.4.92-2.09,1.83-4.18,2.76-6.26.44-.98.88-1.97,1.32-2.95.88-1.57.74-1.55-.43.07l-1.94.14c4.24,4.38,5.37,11.19,6.76,16.94s3.21,11.47,4.45,17.18c.51,2.34,8.09-3.4,7.5-6.14-1.37-6.33-3.32-12.75-4.91-19.06-1.39-5.52-2.64-11.77-6.72-15.98-.46-.48-1.5-.07-1.94.14-4.67,2.21-7.66,5.92-9.83,10.52-3.44,7.25-6.46,14.72-9.78,22.03-.84,1.84.14,2.34,1.8,1.8,1.98-.65,4.16-3.15,5-5h0Z"/>
  <path class="st0" d="M84.16,113.8c3.97-.91,8.93-2.78,13.01-2.62,5.53.22-.32,6.87-2.01,9.14-2.27,3.03-4.43,6.14-6.66,9.21-1.85,2.55-4.41,5.1-4.92,8.32s6.99-2.31,7.39-4.82c.25-1.56,2.32-3.51,3.3-4.87,1.74-2.42,3.44-4.88,5.22-7.26,2.72-3.63,5.78-7.3,7.15-11.71.91-2.94,1.18-5.78-2.56-5.72-4.95.08-10.31,1.85-15.11,2.95-2.08.48-4.26,2.57-5.29,4.38-.52.91-1.74,3.52.47,3.01h0Z"/>
  <path class="st0" d="M77.41,122.09c2.3,4.25,4.64,8.47,7.04,12.67.95,1.67,8.58-4.42,7.07-7.07-2.39-4.2-4.74-8.42-7.04-12.67-.88-1.63-8.54,4.37-7.07,7.07h0Z"/>
  <path class="st0" d="M115.01,103.83c15.37-12.62,32.14-22.87,49.48-32.54,1.89-1.05,4.3-2.84,5-5,.5-1.52.12-2.87-1.8-1.8-18.66,10.4-36.71,21.43-53.25,35.01-.93.76-4.25,3.76-3.46,5.24.85,1.59,3.11-.15,4.04-.9h0Z"/>
  <path class="st0" d="M112.35,113.15c19.28,5.48,38.94,9.72,57.7,16.89,2.39.92,8.72-6.51,6.14-7.5-18.76-7.17-38.42-11.41-57.7-16.89-2.58-.73-8.62,6.79-6.14,7.5h0Z"/>
  <path class="st0" d="M127.09,104.66c10.14-1.82,20.29-3.71,30.26-6.36s19.65-6.25,29.55-9.12c2.1-.61,4.22-2.5,5.29-4.38.47-.82,1.75-3.65-.47-3.01-9.9,2.87-19.59,6.46-29.55,9.12s-20.11,4.54-30.26,6.36c-2.44.44-8.13,7.99-4.82,7.39h0Z"/>
  <path class="st0" d="M72.76,111.99c-22.05-6.23-43.13-15.64-66.14-17.59-2.85-.24-8.24,7.32-6.14,7.5,23.02,1.95,44.09,11.36,66.14,17.59,2.58.73,8.62-6.8,6.14-7.5h0Z"/>
  <path class="st0" d="M65.06,122.6c-15.91,1.75-31.75,3.92-47.14,8.44-2.1.62-4.21,2.49-5.29,4.38-.47.81-1.75,3.66.47,3.01,15.39-4.53,31.24-6.69,47.14-8.44,2.45-.27,8.29-7.77,4.82-7.39h0Z"/>
  <path class="st0" d="M65.66,130.63c-15.29,6.71-30.17,14.32-45.74,20.41-2.21.86-7.89,8.63-3.2,6.8,15.56-6.08,30.45-13.7,45.74-20.41,1.9-.83,4.34-2.97,5-5,.55-1.69.12-2.64-1.8-1.8h0Z"/>
</svg>