<?xml version="1.0" encoding="UTF-8"?>
<svg id="Layer_1" xmlns="http://www.w3.org/2000/svg" version="1.1" viewBox="0 0 261.42 141.61">
  <!-- Generator: Adobe Illustrator 29.7.1, SVG Export Plug-In . SVG Version: 2.1.1 Build 8)  -->
  <path fill="currentColor" d="M40.12,6.74c3.67,8.16,4.03,17.79,4.62,26.7s.8,18.59,1.05,27.9c.49,18.88,2.26,37.7,2.78,56.57.05,1.9,7.58-3.2,7.5-6.14-.51-18.88-2.28-37.69-2.78-56.57-.24-9.3-.43-18.61-1.05-27.9s-.95-18.53-4.62-26.7c-1.16-2.59-8.53,3.84-7.5,6.14h0Z"/>
  <path fill="currentColor" d="M8.97,33.99c5.38-4.77,12.97-6.84,19.63-9.2s13.75-4.65,20.75-6.58c13.35-3.69,27.33-7.38,41.06-9.32l1.75-.23c2.43.5,4.18-.43,5.26-2.78-.64,0-1.77.95-2.29,1.25-3.08,1.78-6.09,3.66-9.21,5.38-6.69,3.7-13.47,7.23-20.29,10.68-11.19,5.67-23.98,9.79-33.86,17.65-.85.68-5.22,4.99-2.78,5.91,7.84,2.96,18.23,1.62,26.46,1.61,8.89-.02,17.78-.03,26.64.68s16.79,2.06,25.03,3.93c6.66,1.52,14.55,4.05,17.63,10.57l.14-1.94-2.67,6.12,3.11-3.77c-7.67,5.87-17.63,8.18-26.72,10.97-9.69,2.97-19.51,5.52-29.38,7.85s-19.84,4.61-29.87,6.33c-10.8,1.85-21.64,2.18-32.54,2.99-2.1.16-3.97,1.87-5.24,3.46-.29.36-2.77,4.17-.9,4.04,8.74-.66,17.54-.8,26.24-1.92,8.85-1.14,17.63-2.99,26.34-4.94,17.01-3.8,33.96-7.99,50.46-13.63,6.85-2.34,13.3-4.44,19.29-8.66,4.04-2.85,10.07-9.26,8.52-14.57-1.66-5.67-9.68-7.68-14.47-9.31-7.65-2.6-16.24-3.73-24.25-4.59-9.74-1.04-19.52-1.13-29.3-1.12-4.83,0-9.66.03-14.49-.07s-9.51.12-13.9-1.53l-2.78,5.91c5.75-4.57,13.11-6.87,19.67-10.03,7.84-3.78,15.59-7.76,23.28-11.84,6.57-3.49,13-7.19,19.44-10.91,3.93-2.27,8.88-5.64,8.81-10.71-.06-.39-.28-.62-.68-.68-7.94-.11-15.62,2.11-23.33,3.76-8.81,1.89-17.6,3.87-26.28,6.3-8.18,2.29-16.23,4.99-24.21,7.91-7.43,2.72-14.65,5.35-20.66,10.68-.91.8-4.27,3.73-3.46,5.24s3.14-.11,4.04-.9h0Z"/>
  <path fill="currentColor" d="M95,25.04c.58,12.23,15.17,3.05,21.06.3,2.28-1.06,5.47-3.15,8.08-2.77,2.76.4,3.4,2.97,5.62,4.04,3.58,1.71,7.78-1.77,10.53-3.64,3.59-2.45,10.48-9.19,15.01-7.91,3.82,1.07,5.15,2.02,8.99.2s13.55-11.2,16.76-5.24c.88,1.63,8.53-4.36,7.07-7.07-3.14-5.83-11.11-.36-14.83,1.97-2.25,1.41-5.43,4.38-8.27,4.12-2.27-.21-3.77-1.97-6.23-1.79-2.03.14-3.92,1.17-5.64,2.18-4.44,2.62-8.43,5.98-12.81,8.69-3.48,2.16-3.79.7-6.45-1.38-1.53-1.2-3.13-1.77-5.07-1.67-4.76.25-9.82,3.53-14,5.58-4.74,2.33-11.95,6.21-12.33-1.76-.09-1.96-7.64,3.21-7.5,6.14h0Z"/>
  <path fill="currentColor" d="M123.68,33.75c-14.12,3.91-24.96,13.13-35.21,23.25-5.17,5.1-9.68,10.91-13.34,17.18s-7.56,12.77-9.82,19.72-2.15,14.38-2.61,21.81c-.39,6.32,1.47,15.23,6.42,19.74,1.37,1.25,3.69,1.98,5.35,2.87s3.58,2.34,5.35,2.87c2.85.85,6.51.2,9.48-.14,7.48-.85,14.58-3.35,21.19-6.9,15.88-8.53,29.26-20.52,42.31-32.8.77-.72,3.45-3.62,2.26-4.81s-4.15,1.64-4.81,2.26c-12.03,11.33-24.54,22.86-39.57,30.11-6.79,3.28-17.85,7.13-25.32,4.39-3.21-1.18-8.03-3.75-10.21-6.29-2.55-2.97-4.09-7.37-4.71-11.17s.11-7.43.07-11.19c-.05-4.21.24-8.3,1.27-12.4,1.95-7.75,6.51-15.48,10.8-22.2s9.9-11.43,15.74-16.82c6.29-5.8,12.14-9.76,20.53-12.08,2.1-.58,4.22-2.51,5.29-4.38.48-.84,1.75-3.62-.47-3.01h0Z"/>
  <path fill="currentColor" d="M137.27,77.15c-.44,1.9-.46,2.99.89,4.43,1.61,1.72,5.76-3.24,6.42-4.22.85-1.27,1.8-3.73,3.01-4.64,3-2.25,3.68,1.46,4.5,3.38.89,2.08,1.54,3.98,4.15,3.9,3.54-.12,6.75-3.97,9.14-6.06,1.74-1.53,3.43-3.07,5.48-4.18,3.13-1.69,4.97-.99,8.21-.74,8.14.61,11.94-9.31,14.21-15.43,3.76-10.14,6.74-20.65,9.08-31.21.48-2.18-2.1-.99-3.01-.47-1.75,1-3.93,3.24-4.38,5.29-2.87,12.96-6.28,26.69-12.51,38.48l3.11-3.77c.14-.11-2.44-.92-2.89-.98-1.64-.22-3.06-.11-4.66.31-2.61.69-5.11,2.24-7.35,3.7-2.78,1.81-4.98,4.61-7.76,6.32-1.32.81-1.23,1.53-2.59.34-.69-.6-.92-2.24-1.26-3.03-5.43-12.37-16.58,4.69-20.25,10.17l6.42-4.22-.57-2.18c.51-2.18-2.12-.98-3.01-.47-1.76,1.01-3.9,3.23-4.38,5.29h0Z"/>
  <path fill="currentColor" d="M187.18,52.48c.93,6.72,5.47,7.15,10.96,3.82,3.05-1.85,5.9-5.26,9.8-4.84,3.61.39,6.17,3.8,8.43,6.21s4.17,4.42,7.59,4.29c2.76-.1,5.38-1.26,7.79-2.52,3.09-1.61,6.29-4.22,9.97-3.85,4.26.43,8.79,2.82,12.98,3.89,2.63.67,8.58-6.87,6.14-7.5-6.74-1.72-12.94-5.5-19.78-2.59-2.55,1.09-4.81,2.75-7.34,3.87-4.5,2-7.17.68-10.28-2.67-3.85-4.14-7.84-7.99-13.88-6.07-2.89.92-5.23,2.68-7.69,4.37-3.87,2.65-6.49,2.55-7.2-2.56-.3-2.18-7.89,3.3-7.5,6.14h0Z"/>
  <path fill="currentColor" d="M162.48,55.22c27.31-8.59,54.13-18.64,81.03-28.44,2.24-.82,7.95-8.53,3.2-6.8-26.36,9.6-52.64,19.43-79.4,27.85-2.1.66-4.2,2.47-5.29,4.38-.45.78-1.75,3.71.47,3.01h0Z"/>
  <path fill="currentColor" d="M244.91,38.86c2.05,0,4.04-1.96,5.24-3.46.34-.43,2.78-4.04.9-4.04-2.05,0-4.04,1.96-5.24,3.46-.34.43-2.78,4.04-.9,4.04h0Z"/>
  <path fill="currentColor" d="M244.21,39.57c2.05,0,4.04-1.96,5.24-3.46.34-.43,2.78-4.04.9-4.04-2.05,0-4.04,1.96-5.24,3.46-.34.43-2.78,4.04-.9,4.04h0Z"/>
</svg>